# File created by Blade
# Date/Time:  Tue Sep 30 19:36:36 2014
#---------------------------------------------------------
:version 1.10
:name HOM
:units
  mass 1.0
  length 1.000000
  angle deg
:documentation
     Acclaim Skeleton File
:root
   axis xyz
   order TX TY TZ RX RY RZ
   position 0.000000 0.000000 0.000000
   orientation 0 0 0
:bonedata
   begin
      id 1
      name Spine_dum
      direction 0.000000 1.000000 0.000000
      length 3.241213
      axis 0.0 0.0 0.0 xyz
   end
   begin
      id 2
      name LeftUpLeg_dum
      direction 1.000000 0.000000 0.000000
      length 3.434019
      axis 0.0 0.0 0.0 xyz
   end
   begin
      id 3
      name RightUpLeg_dum
      direction -1.000000 0.000000 0.000000
      length 3.434019
      axis 0.0 0.0 0.0 xyz
   end
   begin
      id 4
      name Spine
      direction 0.000000 1.000000 0.000000
      length 0.000000
      axis 0.0 0.0 0.0 xyz
      dof rx ry rz
   end
   begin
      id 5
      name Spine_dum1
      direction 0.000000 1.000000 0.000000
      length 18.382958
      axis 0.0 0.0 0.0 xyz
   end
   begin
      id 6
      name Spine_dum2
      direction 0.000000 1.000000 0.000000
      length 12.828261
      axis 0.0 0.0 0.0 xyz
   end
   begin
      id 7
      name Spine_dum3
      direction 0.000000 1.000000 0.000000
      length 12.828261
      axis 0.0 0.0 0.0 xyz
   end
   begin
      id 8
      name Head
      direction 0.000000 1.000000 0.000000
      length 4.527550
      axis 0.0 0.0 0.0 xyz
      dof rx ry rz
   end
   begin
      id 9
      name LeftShoulder
      direction 1.000000 0.000000 0.000000
      length 7.748055
      axis 0.0 0.0 -90.0 xyz
      dof rx ry rz
   end
   begin
      id 10
      name LeftArm
      direction 1.000000 0.000000 0.000000
      length 10.635614
      axis 0.0 0.0 -90.0 xyz
      dof rx ry rz
   end
   begin
      id 11
      name LeftForeArm
      direction 1.000000 0.000000 0.000000
      length 8.346755
      axis 0.0 0.0 -90.0 xyz
      dof ry rz rx
   end
   begin
      id 12
      name LeftHand
      direction 0.000000 0.000000 0.000000
      length 0.000000
      axis 0.0 0.0 -90.0 xyz
      dof rx ry rz
   end
   begin
      id 13
      name LeftHand_dum1
      direction 0.000000 0.000000 0.000000
      length 0.000000
      axis 0.0 0.0 -90.0 xyz
   end
   begin
      id 14
      name LeftHand_dum2
      direction 1.000000 0.000000 0.000000
      length 3.937000
      axis 0.0 0.0 -90.0 xyz
   end
   begin
      id 15
      name LeftHandThumb1
      direction 0.000000 0.000000 1.000000
      length 3.937000
      axis 0.0 0.0 -90.0 xyz
      dof rx rz ry
   end
   begin
      id 16
      name RightShoulder
      direction -1.000000 0.000000 0.000000
      length 7.748055
      axis 0.0 0.0 90.0 xyz
      dof rx ry rz
   end
   begin
      id 17
      name RightArm
      direction -1.000000 0.000000 0.000000
      length 10.635614
      axis 0.0 0.0 90.0 xyz
      dof rx ry rz
   end
   begin
      id 18
      name RightForeArm
      direction -1.000000 0.000000 0.000000
      length 8.346755
      axis 0.0 0.0 90.0 xyz
      dof ry rz rx
   end
   begin
      id 19
      name RightHand
      direction 0.000000 0.000000 0.000000
      length 0.000000
      axis 0.0 0.0 90.0 xyz
      dof rx ry rz
   end
   begin
      id 20
      name RightHand_dum1
      direction 0.000000 0.000000 0.000000
      length 0.000000
      axis 0.0 0.0 90.0 xyz
   end
   begin
      id 21
      name RightHand_dum2
      direction -1.000000 0.000000 0.000000
      length 3.937000
      axis 0.0 0.0 90.0 xyz
   end
   begin
      id 22
      name RightHandThumb1
      direction 0.000000 0.000000 1.000000
      length 3.937000
      axis 0.0 0.0 90.0 xyz
      dof rx rz ry
   end
   begin
      id 23
      name LeftUpLeg
      direction 0.000000 -1.000000 0.000000
      length 15.713025
      axis 0.0 0.0 0.0 xyz
      dof rx ry rz
   end
   begin
      id 24
      name LeftLeg
      direction 0.000000 -1.000000 0.000000
      length 14.435119
      axis 0.0 0.0 0.0 xyz
      dof rx ry rz
   end
   begin
      id 25
      name LeftFoot
      direction 0.000000 -0.258819 0.965926
      length 4.938895
      axis 15.0 0.0 0.0 xyz
      dof rx ry rz
   end
   begin
      id 26
      name LeftToeBase
      direction 0.000000 0.000000 1.000000
      length 2.952750
      axis 0.0 0.0 0.0 xyz
      dof rx ry rz
   end
   begin
      id 27
      name RightUpLeg
      direction 0.000000 -1.000000 0.000000
      length 15.713025
      axis 0.0 0.0 0.0 xyz
      dof rx ry rz
   end
   begin
      id 28
      name RightLeg
      direction 0.000000 -1.000000 0.000000
      length 14.435119
      axis 0.0 0.0 0.0 xyz
      dof rx ry rz
   end
   begin
      id 29
      name RightFoot
      direction 0.000000 -0.258819 0.965926
      length 4.938895
      axis 15.0 0.0 0.0 xyz
      dof rx ry rz
   end
   begin
      id 30
      name RightToeBase
      direction 0.000000 0.000000 1.000000
      length 2.952750
      axis 0.0 0.0 0.0 xyz
      dof rx ry rz
   end
:hierarchy
   begin
      root Spine_dum LeftUpLeg_dum RightUpLeg_dum
      Spine_dum Spine
      LeftUpLeg_dum LeftUpLeg
      RightUpLeg_dum RightUpLeg
      Spine Spine_dum1 Spine_dum2 Spine_dum3
      Spine_dum1 Head
      Spine_dum2 LeftShoulder
      Spine_dum3 RightShoulder
      LeftShoulder LeftArm
      LeftArm LeftForeArm
      LeftForeArm LeftHand
      LeftHand LeftHand_dum1 LeftHand_dum2
      LeftHand_dum1 LeftHandThumb1
      RightShoulder RightArm
      RightArm RightForeArm
      RightForeArm RightHand
      RightHand RightHand_dum1 RightHand_dum2
      RightHand_dum1 RightHandThumb1
      LeftUpLeg LeftLeg
      LeftLeg LeftFoot
      LeftFoot LeftToeBase
      RightUpLeg RightLeg
      RightLeg RightFoot
      RightFoot RightToeBase
   end

# File created by Blade
# Date/Time:  Tue Sep 23 19:22:32 2014
# Frame Rate: 120.000 fps
#------------------------------------------------------
:FULLY-SPECIFIED
:DEGREES
1346
root -6.760943 33.145179 1.968685 72.175789 -13.457167 -23.880189
Spine -41.578003 -8.651019 11.613513
Head -6.267737 18.951736 21.410538
LeftShoulder -19.357564 41.376732 24.562347
LeftArm 44.897597 -53.810891 -79.301883
LeftForeArm 17.993479 -0.000000 86.576104
LeftHand 36.132835 -0.000000 23.754730
LeftHandThumb1 -26.253704 0.000000 33.147579
RightShoulder -45.201807 -51.866882 17.882194
RightArm 35.225106 19.092929 94.475441
RightForeArm 102.756488 0.000000 -9.781481
RightHand 14.536145 -0.000000 16.021073
RightHandThumb1 -24.326973 -0.000000 -32.862282
LeftUpLeg -72.876576 8.733232 17.842998
LeftLeg 22.298634 -0.000000 -0.000000
LeftFoot -12.715619 17.186311 6.648199
LeftToeBase 4.959691 -0.000000 -0.000000
RightUpLeg -18.398888 13.248176 -18.019188
RightLeg 122.164939 -0.000000 -0.000000
RightFoot 39.759815 28.677107 -7.299684
RightToeBase 28.625812 -0.000000 -0.000000
1347
root -6.728429 33.113263 1.956573 72.303152 -13.384400 -23.991990
Spine -41.565700 -8.760597 11.736886
Head -6.358967 18.912696 21.666685
LeftShoulder -19.247153 41.336153 24.646558
LeftArm 44.786883 -53.800523 -79.367649
LeftForeArm 18.193197 -0.000000 86.718952
LeftHand 36.057098 -0.000000 23.774938
LeftHandThumb1 -26.253704 0.000000 33.147579
RightShoulder -45.245474 -51.785779 17.934609
RightArm 35.310755 19.262826 94.480648
RightForeArm 102.624793 -0.000000 -9.857978
RightHand 14.553072 -0.000000 15.830369
RightHandThumb1 -24.326973 -0.000000 -32.862282
LeftUpLeg -73.411700 9.251658 17.063964
LeftLeg 22.948946 -0.000000 -0.000000
LeftFoot -13.318654 17.907427 6.707138
LeftToeBase 4.406861 -0.000000 -0.000000
RightUpLeg -18.336968 13.099070 -17.930358
RightLeg 122.091062 -0.000000 -0.000000
RightFoot 39.807706 28.804048 -7.289324
RightToeBase 28.631630 -0.000000 -0.000000
1348
root -6.691341 33.078507 1.943660 72.518175 -13.333813 -24.056635
Spine -41.649737 -8.870864 11.837147
Head -6.496086 18.896389 21.878262
LeftShoulder -19.155476 41.354256 24.694656
LeftArm 44.876867 -53.840116 -79.618404
LeftForeArm 18.462013 -0.000000 86.903750
LeftHand 35.876906 -0.000000 23.884188
LeftHandThumb1 -26.253704 0.000000 33.147579
RightShoulder -45.337457 -51.731979 18.006622
RightArm 35.394355 19.358122 94.472482
RightForeArm 102.682484 -0.000000 -9.965673
RightHand 14.551444 -0.000000 16.027157
RightHandThumb1 -24.326973 -0.000000 -32.862282
LeftUpLeg -74.168666 9.872180 15.957263
LeftLeg 23.670759 -0.000000 -0.000000
LeftFoot -13.833230 18.211094 6.755459
LeftToeBase 3.938767 -0.000000 -0.000000
RightUpLeg -18.309756 12.838657 -17.901061
RightLeg 122.012680 -0.000000 -0.000000
RightFoot 39.858377 28.716829 -7.271711
RightToeBase 28.596899 -0.000000 -0.000000
1349
root -6.657208 33.038820 1.931693 72.682717 -13.267933 -24.156672
Spine -41.659415 -8.989043 11.941500
Head -6.658760 18.873029 22.123243
LeftShoulder -19.107400 41.395867 24.713412
LeftArm 45.106808 -53.942352 -79.981900
LeftForeArm 18.556569 -0.000000 87.128721
LeftHand 35.890669 -0.000000 23.746526
LeftHandThumb1 -26.253704 0.000000 33.147579
RightShoulder -45.438927 -51.702350 18.107272
RightArm 35.477248 19.474956 94.485560
RightForeArm 102.604381 -0.000000 -10.006707
RightHand 14.569177 -0.000000 15.975175
RightHandThumb1 -24.326973 -0.000000 -32.862282
LeftUpLeg -74.937880 10.461849 14.926107
LeftLeg 24.525372 -0.000000 -0.000000
LeftFoot -14.353761 18.610305 6.682968
LeftToeBase 3.727673 -0.000000 -0.000000
RightUpLeg -18.203419 12.620915 -17.832843
RightLeg 121.917145 -0.000000 -0.000000
RightFoot 39.877271 28.789081 -7.310535
RightToeBase 28.477321 -0.000000 -0.000000
1350
root -6.621114 32.992692 1.920170 72.853449 -13.194350 -24.212746
Spine -41.696519 -9.132070 12.052441
Head -6.813575 18.871717 22.339183
LeftShoulder -19.037757 41.351934 24.748356
LeftArm 45.185286 -54.074778 -80.170908
LeftForeArm 18.724420 -0.000000 87.353578
LeftHand 35.949149 -0.000000 23.665065
LeftHandThumb1 -26.253704 0.000000 33.147579
RightShoulder -45.400278 -51.672652 18.058786
RightArm 35.408493 19.707649 94.552623
RightForeArm 102.549322 -0.000000 -9.927519
RightHand 14.506213 -0.000000 15.936687
RightHandThumb1 -24.326973 -0.000000 -32.862282
LeftUpLeg -75.728496 10.979282 13.940493
LeftLeg 25.345120 -0.000000 -0.000000
LeftFoot -14.821792 19.014465 6.658389
LeftToeBase 3.708698 -0.000000 -0.000000
RightUpLeg -18.049937 12.330542 -17.790143
RightLeg 121.803707 -0.000000 -0.000000
RightFoot 39.935107 28.623049 -7.207812
RightToeBase 28.333466 -0.000000 -0.000000
